#Comment line ignore any data following # character 
#Hierarchical Translation and Rotation (.htr) file 
[Header]	
#Header keywords are followed by a single value 
FileType HTR		#Single word string
DataType HTRS		#Translation followed by rotation and scale data
FileVersion 1		#integer
NumSegments 84		#integer
NumFrames 2		#integer
DataFrameRate 30		#integer, data frame rate in this file
EulerRotationOrder ZYX
CalibrationUnits mm
RotationUnits Degrees
GlobalAxisofGravity Y
BoneLengthAxis Y
ScaleFactor 1.00
[SegmentNames&Hierarchy]
#CHILD	PARENT
MASTER GLOBAL
root MASTER
chest root
L_mid_tent01 root
R_mid_tent01 root
spine01 root
Bip01_Neck chest
L_humerus chest
R_humerus chest
weapon_bone chest
Bip01_Head Bip01_Neck
eye_left_bone Bip01_Head
eye_right_bone Bip01_Head
L_forearm L_humerus
L_front_hand L_forearm
L_weapon_bone L_forearm
L_front_hand01_01 L_front_hand
L_front_hand02_01 L_front_hand
L_front_hand03_01 L_front_hand
L_front_hand01_02 L_front_hand01_01
L_front_hand02_02 L_front_hand02_01
L_front_hand03_02 L_front_hand03_01
R_forearm R_humerus
R_front_hand R_forearm
R_weapon_bone R_forearm
R_front_hand01_01 R_front_hand
R_front_hand02_01 R_front_hand
R_front_hand03_01 R_front_hand
R_front_hand01_02 R_front_hand01_01
R_front_hand02_02 R_front_hand02_01
R_front_hand03_02 R_front_hand03_01
null_rope01_connect L_mid_tent01
Rope1_Seg01 null_rope01_connect
Rope1_Seg02 Rope1_Seg01
Rope1_Seg03 Rope1_Seg02
Rope1_Seg04 Rope1_Seg03
Rope1_Seg05 Rope1_Seg04
Rope1_Seg06 Rope1_Seg05
Rope1_Seg07 Rope1_Seg06
Rope1_Seg09 Rope1_Seg07
L_mid_hand01 Rope1_Seg09
L_mid_hand02 Rope1_Seg09
L_mid_hand03 Rope1_Seg09
null_rope02_connect R_mid_tent01
Rope2_Seg01 null_rope02_connect
Rope2_Seg02 Rope2_Seg01
Rope2_Seg03 Rope2_Seg02
Rope2_Seg04 Rope2_Seg03
Rope2_Seg05 Rope2_Seg04
Rope2_Seg06 Rope2_Seg05
Rope2_Seg07 Rope2_Seg06
Rope2_Seg09 Rope2_Seg07
R_mid_hand01 Rope2_Seg09
R_mid_hand02 Rope2_Seg09
R_mid_hand03 Rope2_Seg09
spine02 spine01
spine03 spine02
pelvis spine03
null_rope03_connect pelvis
null_rope04_connect pelvis
Rope3_Seg01 null_rope03_connect
Rope3_Seg02 Rope3_Seg01
Rope3_Seg03 Rope3_Seg02
Rope3_Seg04 Rope3_Seg03
Rope3_Seg05 Rope3_Seg04
Rope3_Seg06 Rope3_Seg05
Rope3_Seg07 Rope3_Seg06
Rope3_Seg08 Rope3_Seg07
Rope3_Seg09 Rope3_Seg08
R_rear_hand01 Rope3_Seg09
R_rear_hand02 Rope3_Seg09
R_rear_hand03 Rope3_Seg09
Rope4_Seg01 null_rope04_connect
Rope4_Seg02 Rope4_Seg01
Rope4_Seg03 Rope4_Seg02
Rope4_Seg04 Rope4_Seg03
Rope4_Seg05 Rope4_Seg04
Rope4_Seg06 Rope4_Seg05
Rope4_Seg07 Rope4_Seg06
Rope4_Seg08 Rope4_Seg07
Rope4_Seg09 Rope4_Seg08
L_rear_hand01 Rope4_Seg09
L_rear_hand02 Rope4_Seg09
L_rear_hand03 Rope4_Seg09
[BasePosition]
#SegmentName Tx, Ty, Tz, Rx, Ry, Rz, BoneLength
MASTER 0.000000 0.000000 0.000000 -90.000000 0.000000 0.000000 10.000000 
root 0.000000 0.000000 0.000000 0.000000 0.000000 0.000000 10.000000 
chest 0.000000 0.000000 0.000000 0.000000 0.000000 0.000000 10.000000 
L_mid_tent01 0.000000 0.000000 0.000000 0.000000 0.000000 0.000000 10.000000 
R_mid_tent01 0.000000 0.000000 0.000000 0.000000 0.000000 0.000000 10.000000 
spine01 0.000000 0.000000 0.000000 0.000000 0.000000 0.000000 10.000000 
Bip01_Neck 0.000000 0.000000 0.000000 0.000000 0.000000 0.000000 10.000000 
L_humerus 0.000000 0.000000 0.000000 0.000000 0.000000 0.000000 10.000000 
R_humerus 0.000000 0.000000 0.000000 0.000000 0.000000 0.000000 10.000000 
weapon_bone 0.000000 0.000000 0.000000 0.000000 0.000000 0.000000 10.000000 
Bip01_Head 0.000000 0.000000 0.000000 0.000000 0.000000 0.000000 10.000000 
eye_left_bone 0.000000 0.000000 0.000000 0.000000 0.000000 0.000000 10.000000 
eye_right_bone 0.000000 0.000000 0.000000 0.000000 0.000000 0.000000 10.000000 
L_forearm 0.000000 0.000000 0.000000 0.000000 0.000000 0.000000 10.000000 
L_front_hand 0.000000 0.000000 0.000000 0.000000 0.000000 0.000000 10.000000 
L_weapon_bone 0.000000 0.000000 0.000000 0.000000 0.000000 0.000000 10.000000 
L_front_hand01_01 0.000000 0.000000 0.000000 0.000000 0.000000 0.000000 10.000000 
L_front_hand02_01 0.000000 0.000000 0.000000 0.000000 0.000000 0.000000 10.000000 
L_front_hand03_01 0.000000 0.000000 0.000000 0.000000 0.000000 0.000000 10.000000 
L_front_hand01_02 0.000000 0.000000 0.000000 0.000000 0.000000 0.000000 10.000000 
L_front_hand02_02 0.000000 0.000000 0.000000 0.000000 0.000000 0.000000 10.000000 
L_front_hand03_02 0.000000 0.000000 0.000000 0.000000 0.000000 0.000000 10.000000 
R_forearm 0.000000 0.000000 0.000000 0.000000 0.000000 0.000000 10.000000 
R_front_hand 0.000000 0.000000 0.000000 0.000000 0.000000 0.000000 10.000000 
R_weapon_bone 0.000000 0.000000 0.000000 0.000000 0.000000 0.000000 10.000000 
R_front_hand01_01 0.000000 0.000000 0.000000 0.000000 0.000000 0.000000 10.000000 
R_front_hand02_01 0.000000 0.000000 0.000000 0.000000 0.000000 0.000000 10.000000 
R_front_hand03_01 0.000000 0.000000 0.000000 0.000000 0.000000 0.000000 10.000000 
R_front_hand01_02 0.000000 0.000000 0.000000 0.000000 0.000000 0.000000 10.000000 
R_front_hand02_02 0.000000 0.000000 0.000000 0.000000 0.000000 0.000000 10.000000 
R_front_hand03_02 0.000000 0.000000 0.000000 0.000000 0.000000 0.000000 10.000000 
null_rope01_connect 0.000000 0.000000 0.000000 0.000000 0.000000 0.000000 10.000000 
Rope1_Seg01 0.000000 0.000000 0.000000 0.000000 0.000000 0.000000 10.000000 
Rope1_Seg02 0.000000 0.000000 0.000000 0.000000 0.000000 0.000000 10.000000 
Rope1_Seg03 0.000000 0.000000 0.000000 0.000000 0.000000 0.000000 10.000000 
Rope1_Seg04 0.000000 0.000000 0.000000 0.000000 0.000000 0.000000 10.000000 
Rope1_Seg05 0.000000 0.000000 0.000000 0.000000 0.000000 0.000000 10.000000 
Rope1_Seg06 0.000000 0.000000 0.000000 0.000000 0.000000 0.000000 10.000000 
Rope1_Seg07 0.000000 0.000000 0.000000 0.000000 0.000000 0.000000 10.000000 
Rope1_Seg09 0.000000 0.000000 0.000000 0.000000 0.000000 0.000000 10.000000 
L_mid_hand01 0.000000 0.000000 0.000000 0.000000 0.000000 0.000000 10.000000 
L_mid_hand02 0.000000 0.000000 0.000000 0.000000 0.000000 0.000000 10.000000 
L_mid_hand03 0.000000 0.000000 0.000000 0.000000 0.000000 0.000000 10.000000 
null_rope02_connect 0.000000 0.000000 0.000000 0.000000 0.000000 0.000000 10.000000 
Rope2_Seg01 0.000000 0.000000 0.000000 0.000000 0.000000 0.000000 10.000000 
Rope2_Seg02 0.000000 0.000000 0.000000 0.000000 0.000000 0.000000 10.000000 
Rope2_Seg03 0.000000 0.000000 0.000000 0.000000 0.000000 0.000000 10.000000 
Rope2_Seg04 0.000000 0.000000 0.000000 0.000000 0.000000 0.000000 10.000000 
Rope2_Seg05 0.000000 0.000000 0.000000 0.000000 0.000000 0.000000 10.000000 
Rope2_Seg06 0.000000 0.000000 0.000000 0.000000 0.000000 0.000000 10.000000 
Rope2_Seg07 0.000000 0.000000 0.000000 0.000000 0.000000 0.000000 10.000000 
Rope2_Seg09 0.000000 0.000000 0.000000 0.000000 0.000000 0.000000 10.000000 
R_mid_hand01 0.000000 0.000000 0.000000 0.000000 0.000000 0.000000 10.000000 
R_mid_hand02 0.000000 0.000000 0.000000 0.000000 0.000000 0.000000 10.000000 
R_mid_hand03 0.000000 0.000000 0.000000 0.000000 0.000000 0.000000 10.000000 
spine02 0.000000 0.000000 0.000000 0.000000 0.000000 0.000000 10.000000 
spine03 0.000000 0.000000 0.000000 0.000000 0.000000 0.000000 10.000000 
pelvis 0.000000 0.000000 0.000000 0.000000 0.000000 0.000000 10.000000 
null_rope03_connect 0.000000 0.000000 0.000000 0.000000 0.000000 0.000000 10.000000 
null_rope04_connect 0.000000 0.000000 0.000000 0.000000 0.000000 0.000000 10.000000 
Rope3_Seg01 0.000000 0.000000 0.000000 0.000000 0.000000 0.000000 10.000000 
Rope3_Seg02 0.000000 0.000000 0.000000 0.000000 0.000000 0.000000 10.000000 
Rope3_Seg03 0.000000 0.000000 0.000000 0.000000 0.000000 0.000000 10.000000 
Rope3_Seg04 0.000000 0.000000 0.000000 0.000000 0.000000 0.000000 10.000000 
Rope3_Seg05 0.000000 0.000000 0.000000 0.000000 0.000000 0.000000 10.000000 
Rope3_Seg06 0.000000 0.000000 0.000000 0.000000 0.000000 0.000000 10.000000 
Rope3_Seg07 0.000000 0.000000 0.000000 0.000000 0.000000 0.000000 10.000000 
Rope3_Seg08 0.000000 0.000000 0.000000 0.000000 0.000000 0.000000 10.000000 
Rope3_Seg09 0.000000 0.000000 0.000000 0.000000 0.000000 0.000000 10.000000 
R_rear_hand01 0.000000 0.000000 0.000000 0.000000 0.000000 0.000000 10.000000 
R_rear_hand02 0.000000 0.000000 0.000000 0.000000 0.000000 0.000000 10.000000 
R_rear_hand03 0.000000 0.000000 0.000000 0.000000 0.000000 0.000000 10.000000 
Rope4_Seg01 0.000000 0.000000 0.000000 0.000000 0.000000 0.000000 10.000000 
Rope4_Seg02 0.000000 0.000000 0.000000 0.000000 0.000000 0.000000 10.000000 
Rope4_Seg03 0.000000 0.000000 0.000000 0.000000 0.000000 0.000000 10.000000 
Rope4_Seg04 0.000000 0.000000 0.000000 0.000000 0.000000 0.000000 10.000000 
Rope4_Seg05 0.000000 0.000000 0.000000 0.000000 0.000000 0.000000 10.000000 
Rope4_Seg06 0.000000 0.000000 0.000000 0.000000 0.000000 0.000000 10.000000 
Rope4_Seg07 0.000000 0.000000 0.000000 0.000000 0.000000 0.000000 10.000000 
Rope4_Seg08 0.000000 0.000000 0.000000 0.000000 0.000000 0.000000 10.000000 
Rope4_Seg09 0.000000 0.000000 0.000000 0.000000 0.000000 0.000000 10.000000 
L_rear_hand01 0.000000 0.000000 0.000000 0.000000 0.000000 0.000000 10.000000 
L_rear_hand02 0.000000 0.000000 0.000000 0.000000 0.000000 0.000000 10.000000 
L_rear_hand03 0.000000 0.000000 0.000000 0.000000 0.000000 0.000000 10.000000 
#Beginning of Data. Separated by tabs
#Fr	Tx	Ty	Tz	Rx	Ry	Rz	SF
[MASTER]
20 -357.341827 -3515.251709 1354.278931 0.000000 -0.002347 -90.000000 3784.013428
21 -636.426086 -3653.610107 1337.396973 0.000000 -0.002347 -90.000000 3942.402100
[root]
20 -203.136673 59.048244 595.954102 -174.968887 -3.241602 -174.332413 632.386353
21 -228.344177 34.540905 596.265076 -175.945755 -2.334701 -171.627319 639.426453
[chest]
20 -84.512650 -34.090519 0.000000 -79.751175 -26.403776 -151.470367 91.129311
21 -84.512650 -34.090519 0.000000 -82.546204 -27.807436 -152.683853 91.129311
[L_mid_tent01]
20 27.299238 22.179218 -249.918716 -1.566337 25.413507 67.465439 252.381729
21 27.299244 22.179222 -249.918716 -1.528918 25.752863 67.481033 252.381729
[R_mid_tent01]
20 23.228794 24.509907 226.238495 164.210236 16.513317 62.398281 228.744751
21 23.228794 24.509907 226.238495 163.631897 19.392382 63.144062 228.744751
[spine01]
20 -0.361383 -0.195265 0.000000 0.001957 0.001297 22.929245 0.410763
21 -0.361383 -0.195265 0.000000 0.001956 0.001297 22.910067 0.410763
[Bip01_Neck]
20 165.484543 71.581718 0.000119 176.643677 -1.657967 43.431915 180.302734
21 165.484543 71.581718 0.000119 176.643677 -1.657967 43.431911 180.302734
[L_humerus]
20 -13.983130 -135.272980 -120.471481 172.240891 -3.783824 -92.519714 181.680161
21 -13.983130 -135.272980 -120.471481 172.158188 -0.777220 -94.054405 181.680161
[R_humerus]
20 -13.983309 -135.273102 125.287651 -177.000763 5.708732 -85.240730 184.909012
21 -13.983309 -135.273102 125.287651 -177.013596 3.686420 -85.352112 184.909012
[weapon_bone]
20 235.964890 -300.705902 0.000000 0.000000 -89.951546 -128.212341 382.234833
21 235.964890 -300.705902 0.000000 0.000000 -89.951546 -128.212341 382.234833
[Bip01_Head]
20 213.335999 186.017090 7.885450 18.223381 6.152122 -43.833611 283.155060
21 213.338272 186.010788 7.967033 18.223379 6.152122 -43.833603 283.154907
[eye_left_bone]
20 -24.626970 125.451866 -64.772606 0.000000 -90.000000 -99.840431 143.318359
21 -24.626970 125.451866 -64.772606 0.000000 -90.000000 -99.840431 143.318359
[eye_right_bone]
20 -24.626970 125.451866 64.327362 0.000000 -89.980217 80.156380 143.117676
21 -24.626970 125.451866 64.327362 0.000000 -89.965736 80.156380 143.117676
[L_forearm]
20 322.776093 0.000000 -0.000119 0.000432 -0.002307 -111.219704 322.776093
21 322.776093 0.000000 -0.000119 0.000432 -0.002307 -111.203720 322.776093
[L_front_hand]
20 241.149185 -0.042021 -3.300071 -178.667953 -1.835447 -27.422350 241.171753
21 241.149185 -0.042021 -3.300071 -178.667953 -1.835447 -27.422350 241.171753
[L_weapon_bone]
20 156.183838 0.000000 0.000000 0.000014 0.000007 0.000001 156.183838
21 156.183838 0.000000 0.000000 0.000014 0.000007 0.000001 156.183838
[L_front_hand01_01]
20 86.095154 20.947098 -0.655860 -0.351864 -0.488251 73.756912 88.609184
21 86.095154 20.947098 -0.655860 -0.359433 -0.482613 74.612556 88.609184
[L_front_hand02_01]
20 86.935165 -11.437475 24.513514 151.937759 -59.151104 -58.507717 91.046425
21 86.935165 -11.437475 24.513514 153.214294 -59.547066 -59.995945 91.046425
[L_front_hand03_01]
20 86.637497 -14.123976 -20.424902 -151.626480 57.374607 -59.999687 90.126129
21 86.637497 -14.123976 -20.424902 -152.821930 57.770218 -61.413536 90.126129
[L_front_hand01_02]
20 71.020905 -0.000179 0.000030 0.000325 -0.002325 -105.933075 71.020905
21 71.020905 -0.000179 0.000030 0.000327 -0.002324 -106.024261 71.020905
[L_front_hand02_02]
20 71.020927 -0.000119 0.000060 0.000325 -0.002325 -105.933075 71.020927
21 71.020927 -0.000119 0.000060 0.000327 -0.002324 -106.024261 71.020927
[L_front_hand03_02]
20 71.020905 -0.000060 0.000060 0.000325 -0.002325 -105.933075 71.020905
21 71.020905 -0.000060 0.000060 0.000327 -0.002324 -106.024261 71.020905
[R_forearm]
20 322.776428 -0.000060 0.000030 0.201041 0.068364 -109.885597 322.776428
21 322.776428 -0.000060 0.000030 0.201060 0.068307 -109.853363 322.776428
[R_front_hand]
20 238.847015 -0.006795 2.210259 -2.635298 -10.645461 -26.312506 238.857239
21 238.847015 -0.006795 2.210259 -2.635298 -10.645461 -26.312506 238.857239
[R_weapon_bone]
20 155.664093 0.002503 -0.000030 0.003487 0.001180 -90.988930 155.664078
21 155.664093 0.002503 -0.000030 0.003487 0.001180 -90.988930 155.664078
[R_front_hand01_01]
20 87.624611 14.231146 22.918642 -154.633499 -59.950619 61.746044 91.683487
21 87.624611 14.231146 22.918642 -154.633499 -59.950619 61.746044 91.683487
[R_front_hand02_01]
20 89.356956 14.367283 -19.491137 154.602661 58.302849 63.744389 92.579636
21 89.356956 14.367283 -19.491137 154.602661 58.302849 63.744381 92.579636
[R_front_hand03_01]
20 87.286232 -22.307278 -0.143439 0.162155 -0.423168 -75.767906 90.091743
21 87.286232 -22.307278 -0.143439 0.162155 -0.423168 -75.767921 90.091743
[R_front_hand01_02]
20 71.020905 0.000060 0.000119 0.002323 -0.000334 106.381714 71.020905
21 71.020905 0.000060 0.000119 0.002323 -0.000334 106.381721 71.020905
[R_front_hand02_02]
20 71.020844 -0.000030 -0.000119 0.002323 -0.000334 106.381714 71.020836
21 71.020844 -0.000030 -0.000119 0.002323 -0.000334 106.381721 71.020836
[R_front_hand03_02]
20 71.020905 0.000000 0.000030 0.002323 -0.000334 106.381714 71.020905
21 71.020905 0.000000 0.000030 0.002323 -0.000334 106.381721 71.020905
[null_rope01_connect]
20 328.732483 0.000000 -0.000238 166.451569 -17.784525 29.066254 328.732483
21 328.732483 0.000000 -0.000238 166.091156 -18.478745 32.094212 328.732483
[Rope1_Seg01]
20 0.000000 0.000000 0.000000 72.401131 -51.240177 33.742382 0.000000
21 0.000000 0.000000 0.000000 75.102882 -32.735760 33.851910 0.000000
[Rope1_Seg02]
20 139.999863 -0.000179 0.000000 0.482761 -1.067221 -2.258330 139.999863
21 139.999863 -0.000179 0.000000 1.293562 -1.790425 -1.631197 139.999863
[Rope1_Seg03]
20 139.999924 0.000060 -0.000060 0.567144 -1.357641 -2.216095 139.999924
21 139.999924 0.000060 -0.000060 1.638912 -3.111907 -1.255158 139.999924
[Rope1_Seg04]
20 139.999924 -0.000060 -0.000119 0.393079 -3.577414 0.776136 139.999924
21 139.999924 -0.000060 -0.000119 1.477601 -2.230175 -1.862511 139.999924
[Rope1_Seg05]
20 139.999832 0.000119 -0.000060 0.785404 1.324822 -7.215391 139.999832
21 139.999832 0.000119 -0.000060 -0.724405 5.196685 -4.532670 139.999832
[Rope1_Seg06]
20 139.999954 0.000119 -0.000060 2.113296 7.478940 -18.391020 139.999954
21 139.999954 0.000119 -0.000060 -0.485817 3.358783 -2.951910 139.999954
[Rope1_Seg07]
20 139.999985 0.000060 0.000000 5.104444 4.177932 -13.537294 139.999985
21 139.999985 0.000060 0.000000 -0.189718 1.972183 -1.920895 139.999985
[Rope1_Seg09]
20 121.602913 0.000119 -0.000089 -89.793175 -1.359789 0.847147 121.602913
21 121.602913 0.000119 -0.000089 -89.793175 -1.359789 0.847147 121.602913
[L_mid_hand01]
20 103.859421 1.038730 8.195221 121.913704 -62.028732 -29.342178 104.187431
21 103.859421 1.038730 8.195221 124.908302 -64.325737 -32.698208 104.187431
[L_mid_hand02]
20 105.572853 -4.139662 -10.864139 -162.798126 41.730762 -64.459190 106.211075
21 105.572853 -4.139662 -10.864139 -165.192154 42.484787 -68.028900 106.211075
[L_mid_hand03]
20 104.641464 17.579376 -3.913581 -8.147993 16.962013 67.754318 106.179977
21 104.641464 17.579376 -3.913581 -7.308155 17.330339 70.609505 106.179977
[null_rope02_connect]
20 328.732849 0.000179 -0.000119 1.911456 16.897783 -30.507402 328.732849
21 328.732849 0.000179 -0.000119 1.115604 20.665499 -32.016346 328.732849
[Rope2_Seg01]
20 -0.000062 -0.000118 0.000000 72.889854 40.621120 7.613290 0.000133
21 -0.000061 -0.000114 0.000000 95.209358 -2.564893 28.611841 0.000130
[Rope2_Seg02]
20 139.999741 -0.000060 -0.000119 13.138535 11.196925 34.469181 139.999756
21 139.999741 -0.000060 -0.000119 10.843763 18.279905 23.577711 139.999756
[Rope2_Seg03]
20 140.000107 0.000030 0.000000 16.223083 18.577629 40.629528 140.000107
21 140.000107 0.000030 0.000000 2.882966 12.833318 12.135724 140.000107
[Rope2_Seg04]
20 139.999802 0.000000 -0.000060 1.565110 8.131768 7.238081 139.999802
21 139.999802 0.000000 -0.000060 0.095434 1.380059 2.035737 139.999802
[Rope2_Seg05]
20 139.999985 -0.000060 0.000119 -0.081939 1.929678 -1.439155 139.999985
21 139.999985 -0.000060 0.000119 -0.071239 -1.734847 -0.739203 139.999985
[Rope2_Seg06]
20 139.999893 -0.000030 -0.000119 -0.020384 1.841707 0.782859 139.999893
21 139.999893 -0.000030 -0.000119 -0.037983 -0.027921 0.308303 139.999893
[Rope2_Seg07]
20 139.999893 0.000060 -0.000060 -0.051736 1.218587 0.560002 139.999893
21 139.999893 0.000060 -0.000060 -0.042819 0.016579 0.234098 139.999893
[Rope2_Seg09]
20 121.338966 0.000089 -0.000060 33.793236 -1.359788 -0.847141 121.338966
21 121.338966 0.000089 -0.000060 33.793236 -1.359788 -0.847141 121.338966
[R_mid_hand01]
20 104.680779 11.144459 -10.335981 -32.351303 36.833485 46.151863 105.778534
21 104.680779 11.144459 -10.335981 -29.839321 38.782555 50.244747 105.778534
[R_mid_hand02]
20 104.070427 2.443552 8.231699 67.067345 -50.463909 18.609608 104.424065
21 104.070427 2.443552 8.231699 65.096062 -53.911839 21.097576 104.424065
[R_mid_hand03]
20 106.028137 -11.221827 -5.996406 -171.852554 13.596701 -55.941738 106.788818
21 106.028137 -11.221827 -5.996406 -172.771393 14.103963 -59.790871 106.788818
[spine02]
20 129.756927 0.001550 0.000119 0.540195 -4.023566 -15.519612 129.756927
21 129.756927 0.001550 0.000119 0.539141 -4.023707 -15.489609 129.756927
[spine03]
20 78.614044 0.081741 -4.899000 2.004400 3.775501 18.094143 78.766579
21 78.614037 0.081740 -4.899000 2.001998 3.776170 18.070694 78.766571
[pelvis]
20 169.435242 0.051022 0.000000 3.383642 -0.249122 -8.628042 169.435257
21 169.435242 0.051022 0.000000 1.880617 -0.205315 -9.747888 169.435257
[null_rope03_connect]
20 -1.257226 -2.466202 137.391083 176.626984 9.960409 78.721138 137.418976
21 -1.257226 -2.466202 137.391083 178.075623 7.518679 82.619728 137.418976
[null_rope04_connect]
20 -1.259640 -2.480268 -137.844437 176.626984 9.960409 78.721138 137.872513
21 -1.259640 -2.480268 -137.844437 178.075623 7.518679 82.619728 137.872513
[Rope3_Seg01]
20 0.000000 0.000000 0.000000 -127.731728 -7.834256 84.452881 0.000000
21 0.000000 0.000000 0.000000 -117.211334 -23.262386 69.752930 0.000000
[Rope3_Seg02]
20 139.999924 -0.000119 0.000060 6.808204 18.672289 16.815741 139.999924
21 139.999924 -0.000119 0.000060 2.693384 8.467205 4.577354 139.999924
[Rope3_Seg03]
20 139.999924 -0.000119 0.000119 2.560358 8.130433 9.517626 139.999924
21 139.999924 -0.000119 0.000119 -0.237891 2.780955 5.429878 139.999924
[Rope3_Seg04]
20 139.999924 0.000119 0.000000 6.835299 5.414124 -1.653904 139.999924
21 139.999924 0.000119 0.000000 4.247436 6.270723 -0.543740 139.999924
[Rope3_Seg05]
20 139.999924 -0.000238 0.000060 6.307514 2.763854 -5.660287 139.999924
21 139.999924 -0.000238 0.000060 6.610679 6.902359 -5.462956 139.999924
[Rope3_Seg06]
20 139.999893 -0.000119 -0.000060 3.254334 1.427635 -2.634930 139.999893
21 139.999893 -0.000119 -0.000060 3.400631 3.007781 -2.884057 139.999893
[Rope3_Seg07]
20 139.999771 0.000060 -0.000119 2.244301 0.976491 -1.527613 139.999771
21 139.999771 0.000060 -0.000119 2.116444 1.657737 -1.540926 139.999771
[Rope3_Seg08]
20 139.999985 -0.000060 0.000000 1.608992 0.584529 -0.999179 139.999985
21 139.999985 -0.000060 0.000000 1.516630 0.984179 -0.984482 139.999985
[Rope3_Seg09]
20 90.185997 -0.000179 -0.000060 89.793228 -1.359877 -0.847183 90.185997
21 90.185997 -0.000179 -0.000060 89.793228 -1.359877 -0.847183 90.185997
[R_rear_hand01]
20 103.366196 -6.073594 -10.757982 -169.183289 22.304335 -52.678284 104.101845
21 103.366196 -6.073594 -10.757982 -170.781693 22.979746 -56.828289 104.101845
[R_rear_hand02]
20 100.509819 12.039542 -7.992327 -25.326183 30.360588 49.900955 101.543350
21 100.509819 12.039542 -7.992327 -23.183119 31.959579 54.045364 101.543350
[R_rear_hand03]
20 101.539970 5.215704 5.435467 80.575409 -52.733398 11.389215 101.819031
21 101.539970 5.215704 5.435467 79.633026 -56.564861 12.543675 101.819031
[Rope4_Seg01]
20 0.000010 0.000024 -0.000095 64.782906 -48.858105 63.542488 0.000098
21 0.000010 0.000023 -0.000092 59.310768 -39.491951 66.528954 0.000095
[Rope4_Seg02]
20 139.999985 0.000060 0.000119 -0.849659 -8.195526 -6.759430 139.999985
21 139.999985 0.000060 0.000119 -0.292230 -11.394106 -7.828342 139.999985
[Rope4_Seg03]
20 139.999924 0.000000 -0.000238 -0.840416 -6.700641 -4.840510 139.999924
21 139.999924 0.000000 -0.000238 -1.494607 -8.671954 -6.798906 139.999924
[Rope4_Seg04]
20 139.999985 0.000000 0.000119 -1.003879 -5.299357 -3.854155 139.999985
21 139.999985 0.000000 0.000119 -1.083801 -4.793301 -3.527621 139.999985
[Rope4_Seg05]
20 139.999802 -0.000060 -0.000119 -3.987375 -1.268053 -4.602544 139.999802
21 139.999802 -0.000060 -0.000119 1.860532 0.238506 1.865467 139.999802
[Rope4_Seg06]
20 139.999924 0.000000 0.000060 -4.102383 0.664696 -3.605742 139.999924
21 139.999924 0.000000 0.000060 1.696841 0.994702 2.094016 139.999924
[Rope4_Seg07]
20 139.999802 0.000000 0.000000 -2.318086 -0.018708 -2.229054 139.999802
21 139.999802 0.000000 0.000000 0.718685 -0.021945 0.609861 139.999802
[Rope4_Seg08]
20 139.999924 0.000000 0.000119 -3.060352 0.003354 -1.418374 139.999924
21 139.999924 0.000000 0.000119 -1.081496 -0.009471 0.392479 139.999924
[Rope4_Seg09]
20 90.185791 0.000060 0.000060 -135.617828 2.228885 0.850567 90.185791
21 90.185791 0.000060 0.000060 -135.617828 2.228885 0.850567 90.185791
[L_rear_hand01]
20 101.696655 -8.392275 -7.654577 -17.798241 -35.006115 116.214813 102.329041
21 101.696655 -8.392275 -7.654577 -16.229382 -35.681812 113.503807 102.329041
[L_rear_hand02]
20 102.726799 -1.568258 5.773216 76.414978 65.052933 163.777969 102.900848
21 102.726799 -1.568258 5.773216 75.121269 67.292419 162.363388 102.900848
[L_rear_hand03]
20 104.552910 9.721220 -10.420293 -174.535919 -24.090160 -113.787476 105.519653
21 104.552910 9.721220 -10.420293 -175.569016 -24.291679 -111.264954 105.519653
